Coordinates
version=1
nRows=21
nColumns=12
inDegrees=yes

Units are S.I. units (second, meters, Newtons, ...)
Angles are in degrees

endheader
time	SC_y	SC_z	SC_x	AC_y	AC_z	AC_x	GH_y	GH_z	GH_yy	EL_x	PS_y
       0.0              -26.12          16.38          72.14          51.29          -16.0           14.5          143.5         -12.35          144.8          69.68          149.6
   0.03608              -26.12          16.38          72.13          51.29         -15.99           14.5          143.5         -12.35          144.8          69.67          149.6
   0.07215              -26.12          16.38          72.12          51.29         -15.99           14.5          143.4         -12.36          144.7          69.66          149.6
    0.1082              -26.12          16.39          72.11          51.28         -15.99           14.5          143.4         -12.36          144.7          69.65          149.6
    0.1443              -26.12          16.39          72.09          51.28         -15.98          14.49          143.3         -12.36          144.7          69.64          149.6
    0.1804              -26.12          16.39          72.08          51.28         -15.98          14.49          143.3         -12.36          144.7          69.62          149.6
    0.2165              -26.12           16.4          72.07          51.28         -15.97          14.49          143.2         -12.36          144.7          69.61          149.6
    0.2525              -26.12           16.4          72.05          51.28         -15.97          14.48          143.2         -12.36          144.7           69.6          149.6
    0.2886              -26.12          16.41          72.03          51.28         -15.96          14.48          143.1         -12.36          144.7          69.58          149.6
    0.3247              -26.11          16.41          72.02          51.28         -15.96          14.48          143.0         -12.36          144.6          69.57          149.6
    0.3608              -26.11          16.42           72.0          51.27         -15.95          14.47          143.0         -12.36          144.6          69.55          149.6
    0.3968              -26.11          16.42          71.98          51.27         -15.94          14.47          142.9         -12.37          144.6          69.53          149.6
    0.4329              -26.11          16.43          71.96          51.27         -15.94          14.46          142.8         -12.37          144.6          69.52          149.5
     0.469              -26.11          16.43          71.93          51.27         -15.93          14.46          142.7         -12.37          144.6           69.5          149.5
    0.5051              -26.11          16.44          71.91          51.27         -15.92          14.45          142.6         -12.37          144.5          69.47          149.5
    0.5412               -26.1          16.45          71.88          51.26         -15.91          14.45          142.5         -12.37          144.5          69.45          149.5
    0.5772               -26.1          16.46          71.85          51.26          -15.9          14.44          142.3         -12.37          144.5          69.42          149.5
    0.6133               -26.1          16.47          71.82          51.26         -15.89          14.43          142.2         -12.38          144.4          69.39          149.5
    0.6494               -26.1          16.48          71.78          51.25         -15.88          14.43          142.0         -12.38          144.4          69.36          149.5
    0.6855              -26.09          16.49          71.74          51.25         -15.87          14.42          141.9         -12.38          144.4          69.33          149.5
    0.7215              -26.09           16.5           71.7          51.25         -15.85          14.41          141.7         -12.38          144.3          69.29          149.4
